<mxfile host="app.diagrams.net" agent="Mozilla/5.0 (Windows NT 10.0; Win64; x64) AppleWebKit/537.36 (KHTML, like Gecko) Chrome/132.0.0.0 Safari/537.36" version="26.0.9">
  <diagram name="Página-1" id="RY3dJ3DXpTmM6bJiYShF">
    <mxGraphModel dx="1050" dy="522" grid="1" gridSize="10" guides="1" tooltips="1" connect="1" arrows="1" fold="1" page="1" pageScale="1" pageWidth="827" pageHeight="1169" math="0" shadow="0">
      <root>
        <mxCell id="0" />
        <mxCell id="1" parent="0" />
        <mxCell id="IjeBGspVQaXuw-QYNdMY-2" value="NETSMS" style="shape=cylinder3;whiteSpace=wrap;html=1;boundedLbl=1;backgroundOutline=1;size=15;verticalAlign=top;" vertex="1" parent="1">
          <mxGeometry x="174" y="190" width="566" height="180" as="geometry" />
        </mxCell>
        <mxCell id="IjeBGspVQaXuw-QYNdMY-1" value="NETSALES PROSPECT (Front)" style="rounded=1;whiteSpace=wrap;html=1;" vertex="1" parent="1">
          <mxGeometry x="40" y="20" width="120" height="60" as="geometry" />
        </mxCell>
        <mxCell id="IjeBGspVQaXuw-QYNdMY-16" style="edgeStyle=orthogonalEdgeStyle;rounded=0;orthogonalLoop=1;jettySize=auto;html=1;entryX=0.25;entryY=1;entryDx=0;entryDy=0;exitX=0.25;exitY=0;exitDx=0;exitDy=0;" edge="1" parent="1" source="IjeBGspVQaXuw-QYNdMY-3" target="IjeBGspVQaXuw-QYNdMY-15">
          <mxGeometry relative="1" as="geometry" />
        </mxCell>
        <mxCell id="IjeBGspVQaXuw-QYNdMY-17" value="Carrega&amp;nbsp;&lt;div&gt;segmento&amp;nbsp;&lt;/div&gt;&lt;div&gt;em tela&lt;/div&gt;" style="edgeLabel;html=1;align=center;verticalAlign=middle;resizable=0;points=[];" vertex="1" connectable="0" parent="IjeBGspVQaXuw-QYNdMY-16">
          <mxGeometry x="0.065" y="2" relative="1" as="geometry">
            <mxPoint as="offset" />
          </mxGeometry>
        </mxCell>
        <mxCell id="IjeBGspVQaXuw-QYNdMY-3" value="PROPOSTA" style="swimlane;fontStyle=0;childLayout=stackLayout;horizontal=1;startSize=30;horizontalStack=0;resizeParent=1;resizeParentMax=0;resizeLast=0;collapsible=1;marginBottom=0;whiteSpace=wrap;html=1;" vertex="1" parent="1">
          <mxGeometry x="190" y="240" width="140" height="120" as="geometry" />
        </mxCell>
        <mxCell id="IjeBGspVQaXuw-QYNdMY-4" value="ID segmento" style="text;strokeColor=none;fillColor=none;align=left;verticalAlign=middle;spacingLeft=4;spacingRight=4;overflow=hidden;points=[[0,0.5],[1,0.5]];portConstraint=eastwest;rotatable=0;whiteSpace=wrap;html=1;" vertex="1" parent="IjeBGspVQaXuw-QYNdMY-3">
          <mxGeometry y="30" width="140" height="30" as="geometry" />
        </mxCell>
        <mxCell id="IjeBGspVQaXuw-QYNdMY-5" value="Item 2" style="text;strokeColor=none;fillColor=none;align=left;verticalAlign=middle;spacingLeft=4;spacingRight=4;overflow=hidden;points=[[0,0.5],[1,0.5]];portConstraint=eastwest;rotatable=0;whiteSpace=wrap;html=1;" vertex="1" parent="IjeBGspVQaXuw-QYNdMY-3">
          <mxGeometry y="60" width="140" height="30" as="geometry" />
        </mxCell>
        <mxCell id="IjeBGspVQaXuw-QYNdMY-6" value="Item 3" style="text;strokeColor=none;fillColor=none;align=left;verticalAlign=middle;spacingLeft=4;spacingRight=4;overflow=hidden;points=[[0,0.5],[1,0.5]];portConstraint=eastwest;rotatable=0;whiteSpace=wrap;html=1;" vertex="1" parent="IjeBGspVQaXuw-QYNdMY-3">
          <mxGeometry y="90" width="140" height="30" as="geometry" />
        </mxCell>
        <mxCell id="IjeBGspVQaXuw-QYNdMY-7" value="CONTRATO" style="swimlane;fontStyle=0;childLayout=stackLayout;horizontal=1;startSize=30;horizontalStack=0;resizeParent=1;resizeParentMax=0;resizeLast=0;collapsible=1;marginBottom=0;whiteSpace=wrap;html=1;" vertex="1" parent="1">
          <mxGeometry x="370" y="240" width="140" height="120" as="geometry" />
        </mxCell>
        <mxCell id="IjeBGspVQaXuw-QYNdMY-8" value="ID segmento" style="text;strokeColor=none;fillColor=none;align=left;verticalAlign=middle;spacingLeft=4;spacingRight=4;overflow=hidden;points=[[0,0.5],[1,0.5]];portConstraint=eastwest;rotatable=0;whiteSpace=wrap;html=1;" vertex="1" parent="IjeBGspVQaXuw-QYNdMY-7">
          <mxGeometry y="30" width="140" height="30" as="geometry" />
        </mxCell>
        <mxCell id="IjeBGspVQaXuw-QYNdMY-9" value="Item 2" style="text;strokeColor=none;fillColor=none;align=left;verticalAlign=middle;spacingLeft=4;spacingRight=4;overflow=hidden;points=[[0,0.5],[1,0.5]];portConstraint=eastwest;rotatable=0;whiteSpace=wrap;html=1;" vertex="1" parent="IjeBGspVQaXuw-QYNdMY-7">
          <mxGeometry y="60" width="140" height="30" as="geometry" />
        </mxCell>
        <mxCell id="IjeBGspVQaXuw-QYNdMY-10" value="Item 3" style="text;strokeColor=none;fillColor=none;align=left;verticalAlign=middle;spacingLeft=4;spacingRight=4;overflow=hidden;points=[[0,0.5],[1,0.5]];portConstraint=eastwest;rotatable=0;whiteSpace=wrap;html=1;" vertex="1" parent="IjeBGspVQaXuw-QYNdMY-7">
          <mxGeometry y="90" width="140" height="30" as="geometry" />
        </mxCell>
        <mxCell id="IjeBGspVQaXuw-QYNdMY-11" style="edgeStyle=orthogonalEdgeStyle;rounded=0;orthogonalLoop=1;jettySize=auto;html=1;entryX=0.006;entryY=0.19;entryDx=0;entryDy=0;exitX=0.5;exitY=1;exitDx=0;exitDy=0;entryPerimeter=0;" edge="1" parent="1" source="IjeBGspVQaXuw-QYNdMY-1" target="IjeBGspVQaXuw-QYNdMY-3">
          <mxGeometry relative="1" as="geometry" />
        </mxCell>
        <mxCell id="IjeBGspVQaXuw-QYNdMY-12" value="Calcula&amp;nbsp;&lt;div&gt;segmento&amp;nbsp;&lt;/div&gt;&lt;div&gt;proposta&lt;/div&gt;" style="edgeLabel;html=1;align=center;verticalAlign=middle;resizable=0;points=[];" vertex="1" connectable="0" parent="IjeBGspVQaXuw-QYNdMY-11">
          <mxGeometry x="-0.0525" y="4" relative="1" as="geometry">
            <mxPoint x="-4" y="-60" as="offset" />
          </mxGeometry>
        </mxCell>
        <mxCell id="IjeBGspVQaXuw-QYNdMY-18" style="edgeStyle=orthogonalEdgeStyle;rounded=0;orthogonalLoop=1;jettySize=auto;html=1;exitX=1;exitY=0.5;exitDx=0;exitDy=0;entryX=1;entryY=0.177;entryDx=0;entryDy=0;entryPerimeter=0;" edge="1" parent="1" source="IjeBGspVQaXuw-QYNdMY-15" target="IjeBGspVQaXuw-QYNdMY-3">
          <mxGeometry relative="1" as="geometry">
            <mxPoint x="295" y="240" as="targetPoint" />
          </mxGeometry>
        </mxCell>
        <mxCell id="IjeBGspVQaXuw-QYNdMY-19" value="Recalcula&lt;div&gt;segmento&lt;/div&gt;" style="edgeLabel;html=1;align=center;verticalAlign=middle;resizable=0;points=[];" vertex="1" connectable="0" parent="IjeBGspVQaXuw-QYNdMY-18">
          <mxGeometry x="-0.2051" y="-2" relative="1" as="geometry">
            <mxPoint y="29" as="offset" />
          </mxGeometry>
        </mxCell>
        <mxCell id="IjeBGspVQaXuw-QYNdMY-15" value="NETSALES BASE (Front)" style="rounded=1;whiteSpace=wrap;html=1;" vertex="1" parent="1">
          <mxGeometry x="195" y="20" width="120" height="60" as="geometry" />
        </mxCell>
        <mxCell id="IjeBGspVQaXuw-QYNdMY-20" style="edgeStyle=orthogonalEdgeStyle;rounded=0;orthogonalLoop=1;jettySize=auto;html=1;" edge="1" parent="1" source="IjeBGspVQaXuw-QYNdMY-4" target="IjeBGspVQaXuw-QYNdMY-8">
          <mxGeometry relative="1" as="geometry" />
        </mxCell>
        <mxCell id="IjeBGspVQaXuw-QYNdMY-21" value="Trigger (movimentação contrato)" style="html=1;shape=mxgraph.infographic.ribbonSimple;notch1=20;notch2=0;align=center;verticalAlign=middle;fontSize=14;fontStyle=0;flipH=1;fillColor=#FFFFFF;whiteSpace=wrap;" vertex="1" parent="1">
          <mxGeometry x="570" y="255" width="130" height="60" as="geometry" />
        </mxCell>
        <mxCell id="IjeBGspVQaXuw-QYNdMY-22" style="edgeStyle=orthogonalEdgeStyle;rounded=0;orthogonalLoop=1;jettySize=auto;html=1;startArrow=classic;startFill=1;" edge="1" parent="1" source="IjeBGspVQaXuw-QYNdMY-8" target="IjeBGspVQaXuw-QYNdMY-21">
          <mxGeometry relative="1" as="geometry" />
        </mxCell>
      </root>
    </mxGraphModel>
  </diagram>
</mxfile>
